<svg width="125" height="125" viewBox="0 0 125 125" fill="none" xmlns="http://www.w3.org/2000/svg">
<path d="M125 24C125 37.2548 114.479 48 101.5 48C88.5213 48 78 37.2548 78 24C78 10.7452 88.5213 0 101.5 0C114.479 0 125 10.7452 125 24Z" fill="#F9DC5C"/>
<path fill-rule="evenodd" clip-rule="evenodd" d="M31.3314 1.70243C21.9171 4.86269 15.1347 13.7574 15.1347 24.2362C15.1347 34.715 21.9171 43.6096 31.3314 46.7699C28.9544 47.5678 26.4097 48.0002 23.764 48.0002C10.6395 48.0002 0 37.3607 0 24.2362C0 11.1117 10.6395 0.472168 23.764 0.472168C26.4097 0.472168 28.9544 0.904522 31.3314 1.70243Z" fill="#FCFCFC"/>
<path d="M24.7028 68.3132C27.4949 60.2803 38.4029 59.1776 42.7461 66.4892L54.1347 85.6615C56.8974 90.3123 62.8575 91.9231 67.5868 89.2971L91.6863 75.9153C97.43 72.726 104.636 75.8473 106.239 82.2185L113.871 112.561C115.459 118.876 110.685 125 104.173 125H19.0626C12.1832 125 7.3583 118.215 9.61685 111.717L24.7028 68.3132Z" fill="#C4C4C4"/>
</svg>
