<svg width="1098" height="413" viewBox="0 0 1098 413" fill="none" xmlns="http://www.w3.org/2000/svg">
<mask id="mask0_244_121" style="mask-type:alpha" maskUnits="userSpaceOnUse" x="5" y="6" width="1093" height="397">
<path d="M6.49988 46.0073C6.49988 24.1921 24.1846 6.50732 45.9999 6.50732H1058C1079.82 6.50732 1097.5 24.1921 1097.5 46.0073V362.007C1097.5 383.823 1079.82 401.507 1058 401.507H45.9999C24.1846 401.507 6.49988 383.823 6.49988 362.007V46.0073Z" fill="#204F68" stroke="#204F68"/>
</mask>
<g mask="url(#mask0_244_121)">
<path d="M234.596 433.201C243.549 435.365 253.663 437.809 265.595 440.655C309.051 429.385 338.708 412.245 365.014 386.194C391.077 360.383 413.902 325.783 443.548 279.139C435.34 276.07 424.461 274.4 411.484 274.037C397.073 273.635 380.263 274.85 362.004 277.423C325.489 282.569 283.376 293.119 243.444 306.829C203.498 320.544 165.856 337.38 138.235 355.048C124.419 363.886 113.208 372.87 105.468 381.7C98.3954 389.771 94.4028 397.502 93.7241 404.725C172.503 418.193 187.475 421.812 234.596 433.201Z" fill="#F28123" stroke="#F9DC5C" stroke-width="5"/>
<path d="M219.231 96.0566C185.212 55.1079 151.416 10.7691 132.663 -21.0856C94.5648 1.29939 68.1255 27.2561 47.979 50.711C39.3195 60.7926 31.8342 70.3973 25.0577 79.0924C23.7932 80.715 22.5533 82.306 21.335 83.8624C13.6267 93.7109 6.72913 102.255 0.0123636 108.501C-6.70546 114.749 -13.5175 118.964 -21.1048 119.725C-28.7456 120.492 -36.6369 117.707 -45.3949 111.131C-61.7176 98.8738 -82.0754 72.648 -111.14 27.4994C-105.961 77.4642 -99.1445 116.726 -90.8122 147.265C-81.9045 179.913 -71.3047 202.44 -59.2523 217.411C-47.2567 232.312 -33.7967 239.767 -18.9344 242.283C-3.972 244.816 12.6183 242.379 30.8655 237.074C48.4405 231.965 67.317 224.272 87.5232 216.036C88.2954 215.721 89.0696 215.406 89.8458 215.09C110.881 206.519 133.285 197.477 156.848 190.389C200.929 177.128 249.241 170.648 300.784 186.797C280.284 166.629 249.603 132.616 219.231 96.0566Z" fill="#81E1BA" stroke="#F28123" stroke-width="5"/>
<path d="M907.78 317.835C907.829 352.642 904.069 399.322 895.86 460.511C869.473 429.294 848.024 415.793 827.982 415.117C807.039 414.411 788.63 427.764 768.947 446.626C761.454 453.806 753.713 461.844 745.5 470.373C710.588 506.622 667.154 551.722 598.117 577.337C597.325 575.048 596.01 571.202 594.302 566.204C589.86 553.21 582.757 532.43 575.263 510.996C569.295 493.927 563.094 476.488 557.833 462.361C553.746 451.39 550.166 442.246 547.685 436.861C595.075 433.869 644.533 403.294 690.854 366.986C714.582 348.387 737.619 328.174 759.251 309.193L759.594 308.892C781.355 289.798 801.659 271.996 819.911 258.24C838.235 244.431 854.158 234.966 867.168 232.204C873.607 230.836 879.164 231.149 883.915 233.238C888.654 235.322 892.878 239.301 896.428 245.803C903.604 258.947 907.73 281.86 907.78 317.835Z" fill="#F9DC5C" stroke="#497E9A" stroke-width="5"/>
<path d="M837.586 -32.2278L835.678 -31.6513C845.929 1.68983 873.064 78.9869 903.129 152.195C918.533 189.702 934.684 226.083 949.708 254.905C957.222 269.318 964.43 281.797 971.101 291.565C975.193 297.556 979.024 302.441 982.541 306.114C961.89 235.619 965.289 154.078 974.421 82.5675C979.173 45.3541 985.49 10.7762 990.82 -18.1882L991.146 -19.9609C995.929 -45.952 999.829 -67.1483 1001.05 -81.6145L891.009 -48.3683L849.576 -35.8503L837.586 -32.2278Z" fill="#497E9A" stroke="#BCF9E0" stroke-width="5"/>
</g>
</svg>
