<svg width="1271" height="708" viewBox="0 0 1271 708" fill="none" xmlns="http://www.w3.org/2000/svg">
<g filter="url(#filter0_bd_244_121)">
<path d="M169 169.007C169 146.916 186.908 129.007 209 129.007H1221C1243.09 129.007 1261 146.916 1261 169.007V485.007C1261 507.099 1243.09 525.007 1221 525.007H209C186.908 525.007 169 507.099 169 485.007V169.007Z" fill="#204F68"/>
<path d="M209 129.507H1221C1242.82 129.507 1260.5 147.192 1260.5 169.007V485.007C1260.5 506.823 1242.82 524.507 1221 524.507H209C187.185 524.507 169.5 506.823 169.5 485.007V169.007C169.5 147.192 187.185 129.507 209 129.507Z" stroke="#204F68"/>
</g>
<path d="M397.596 556.201C406.549 558.365 416.663 560.809 428.595 563.655C472.051 552.385 501.708 535.245 528.014 509.194C554.077 483.383 576.902 448.783 606.548 402.139C598.34 399.07 587.461 397.4 574.484 397.037C560.073 396.635 543.263 397.85 525.004 400.423C488.489 405.569 446.376 416.119 406.444 429.829C366.498 443.544 328.856 460.38 301.235 478.048C287.419 486.886 276.208 495.87 268.468 504.7C261.395 512.771 257.403 520.502 256.724 527.725C335.503 541.193 350.475 544.812 397.596 556.201Z" fill="#F28123" stroke="#F9DC5C" stroke-width="5"/>
<path d="M382.231 219.057C348.212 178.108 314.416 133.769 295.663 101.914C257.565 124.299 231.125 150.256 210.979 173.711C202.32 183.793 194.834 193.397 188.058 202.092C186.793 203.715 185.553 205.306 184.335 206.862C176.627 216.711 169.729 225.255 163.012 231.501C156.295 237.749 149.483 241.964 141.895 242.725C134.254 243.492 126.363 240.707 117.605 234.131C101.282 221.874 80.9246 195.648 51.8602 150.499C57.039 200.464 63.8555 239.726 72.1879 270.265C81.0955 302.913 91.6953 325.44 103.748 340.411C115.743 355.312 129.203 362.767 144.066 365.283C159.028 367.816 175.618 365.379 193.866 360.074C211.44 354.965 230.317 347.272 250.523 339.036C251.295 338.721 252.07 338.406 252.846 338.09C273.881 329.519 296.285 320.477 319.848 313.389C363.929 300.128 412.241 293.648 463.784 309.797C443.284 289.629 412.603 255.616 382.231 219.057Z" fill="#81E1BA" stroke="#F28123" stroke-width="5"/>
<path d="M761.117 700.337C760.325 698.048 759.01 694.202 757.302 689.204C752.86 676.21 745.757 655.43 738.263 633.996C732.295 616.927 726.094 599.488 720.833 585.361C716.746 574.39 713.166 565.246 710.685 559.861C758.075 556.869 807.533 526.294 853.854 489.986C877.582 471.387 900.619 451.174 922.251 432.193L922.594 431.892C944.355 412.798 964.659 394.996 982.911 381.24C1001.23 367.431 1017.16 357.966 1030.17 355.204C1036.61 353.836 1042.16 354.149 1046.92 356.238C1051.65 358.322 1055.88 362.301 1059.43 368.803C1066.6 381.947 1070.73 404.86 1070.78 440.835C1070.83 475.642 1067.07 522.322 1058.86 583.511C1032.47 552.294 1011.02 538.793 990.982 538.117C970.039 537.411 951.63 550.764 931.947 569.626C924.454 576.806 916.713 584.844 908.5 593.373C873.588 629.622 830.154 674.722 761.117 700.337Z" fill="#F9DC5C" stroke="#497E9A" stroke-width="5"/>
<path d="M1000.59 90.7727L998.678 91.3492C1008.93 124.69 1036.06 201.987 1066.13 275.195C1081.53 312.703 1097.68 349.083 1112.71 377.905C1120.22 392.319 1127.43 404.797 1134.1 414.565C1138.19 420.557 1142.02 425.441 1145.54 429.114C1124.89 358.62 1128.29 277.079 1137.42 205.568C1142.17 168.355 1148.49 133.777 1153.82 104.812L1154.15 103.04C1158.93 77.0484 1162.83 55.8522 1164.05 41.386L1054.01 74.6322L1012.58 87.1502L1000.59 90.7727Z" fill="#497E9A" stroke="#BCF9E0" stroke-width="5"/>
<defs>
<filter id="filter0_bd_244_121" x="139" y="99.0073" width="1152" height="456" filterUnits="userSpaceOnUse" color-interpolation-filters="sRGB">
<feFlood flood-opacity="0" result="BackgroundImageFix"/>
<feGaussianBlur in="BackgroundImage" stdDeviation="15"/>
<feComposite in2="SourceAlpha" operator="in" result="effect1_backgroundBlur_244_121"/>
<feColorMatrix in="SourceAlpha" type="matrix" values="0 0 0 0 0 0 0 0 0 0 0 0 0 0 0 0 0 0 127 0" result="hardAlpha"/>
<feOffset dx="2" dy="2"/>
<feGaussianBlur stdDeviation="4"/>
<feComposite in2="hardAlpha" operator="out"/>
<feColorMatrix type="matrix" values="0 0 0 0 0.14902 0 0 0 0 0.137255 0 0 0 0 0.529412 0 0 0 0.2 0"/>
<feBlend mode="normal" in2="effect1_backgroundBlur_244_121" result="effect2_dropShadow_244_121"/>
<feBlend mode="normal" in="SourceGraphic" in2="effect2_dropShadow_244_121" result="shape"/>
</filter>
</defs>
</svg>
