<svg width="125" height="125" viewBox="0 0 125 125" fill="none" xmlns="http://www.w3.org/2000/svg">
<path d="M83.2675 50.7395C83.4494 49.2947 83.5708 47.7922 83.5708 46.2318C83.5708 44.6715 83.4494 43.169 83.2068 41.7242L93.4578 34.096C94.3677 33.4025 94.6103 32.1311 94.0644 31.1487L84.3593 15.1409C83.7527 14.1007 82.4789 13.754 81.3871 14.1007L69.3164 18.7239C66.7688 16.8746 64.0999 15.3721 61.1277 14.2163L59.308 1.96485C59.126 0.809057 58.0948 0 56.8817 0H37.4714C36.2583 0 35.2878 0.809057 35.1058 1.96485L33.2861 14.2163C30.3139 15.3721 27.5843 16.9324 25.0974 18.7239L13.0267 14.1007C11.9348 13.6962 10.661 14.1007 10.0545 15.1409L0.349356 31.1487C-0.257214 32.1889 -0.014585 33.4025 0.955927 34.096L11.207 41.7242C10.9643 43.169 10.7824 44.7293 10.7824 46.2318C10.7824 47.7344 10.9037 49.2947 11.1463 50.7395L0.895268 58.3677C-0.0145865 59.0612 -0.257214 60.3326 0.288699 61.315L9.99382 77.3228C10.6004 78.363 11.8742 78.7097 12.966 78.363L25.0368 73.7398C27.5843 75.5891 30.2533 77.0916 33.2254 78.2474L35.0452 90.4988C35.2878 91.6546 36.2583 92.4637 37.4714 92.4637H56.8817C58.0948 92.4637 59.126 91.6546 59.2473 90.4988L61.067 78.2474C64.0392 77.0916 66.7688 75.5313 69.2557 73.7398L81.3264 78.363C82.4183 78.7675 83.6921 78.363 84.2986 77.3228L94.0038 61.315C94.6103 60.2748 94.3677 59.0612 93.3972 58.3677L83.2675 50.7395V50.7395ZM47.1766 63.5688C37.1682 63.5688 28.9795 55.7672 28.9795 46.2318C28.9795 36.6965 37.1682 28.8949 47.1766 28.8949C57.185 28.8949 65.3737 36.6965 65.3737 46.2318C65.3737 55.7672 57.185 63.5688 47.1766 63.5688Z" fill="#F9DC5C"/>
<path d="M112.485 82.7404C112.61 81.2771 112.673 79.7553 112.615 78.1749C112.556 76.5946 112.38 75.0727 112.086 73.6095L121.92 65.8833C122.792 65.1809 122.984 63.8932 122.408 62.8982L112.223 46.6849C111.585 45.6313 110.315 45.2801 109.25 45.6313L97.5058 50.3139C94.9209 48.4408 92.2293 46.919 89.2513 45.7484L86.9936 33.3397C86.7705 32.1691 85.7219 31.3496 84.5242 31.3496H65.3599C64.1622 31.3496 63.2344 32.1691 63.0982 33.3397L61.7626 45.7484C58.8716 46.919 56.2353 48.4994 53.8473 50.3139L41.7556 45.6313C40.6624 45.2216 39.4199 45.6313 38.8602 46.6849L29.8804 62.8982C29.3207 63.9517 29.6059 65.1809 30.5902 65.8833L40.9984 73.6095C40.8132 75.0727 40.6922 76.6531 40.7488 78.1749C40.8053 79.6967 40.9838 81.2771 41.2777 82.7404L31.4437 90.4666C30.5714 91.1689 30.3797 92.4566 30.9557 93.4517L41.1402 109.665C41.7782 110.719 43.0489 111.07 44.1138 110.719L55.8576 106.036C58.4425 107.909 61.1341 109.431 64.1121 110.601L66.3698 123.01C66.6529 124.181 67.6415 125 68.8393 125H88.0035C89.2013 125 90.1889 124.181 90.2652 123.01L91.6008 110.601C94.4919 109.431 97.1281 107.85 99.5161 106.036L111.608 110.719C112.701 111.128 113.944 110.719 114.503 109.665L123.483 93.4517C124.043 92.3981 123.758 91.1689 122.773 90.4666L112.485 82.7404V82.7404ZM77.3341 95.7344C67.4525 95.7344 59.0741 87.8326 58.7153 78.1749C58.3564 68.5172 66.1478 60.6154 76.0293 60.6154C85.9109 60.6154 94.2894 68.5172 94.6482 78.1749C95.007 87.8326 87.2157 95.7344 77.3341 95.7344Z" fill="#FCFCFC"/>
</svg>
