<svg width="1440" height="918" viewBox="0 0 1440 918" fill="none" xmlns="http://www.w3.org/2000/svg">
<path d="M0 572.883C120.649 916.708 855.896 340.338 1444 392.348C845.961 680.404 304.224 1092.98 0 838.434V572.883Z" fill="#E2E2E2"/>
<path d="M0 278C122.699 -13.1735 385.901 301.293 984 257.248C375.797 13.3031 309.395 -101.893 0 113.676V278Z" fill="#E2E2E2"/>
<path d="M1346.16 375.071C1351.28 213.154 1217.93 170.743 1430.62 168.558C1079.2 -5.19651 1264.01 279.791 1099.66 406.984C1145.32 394.204 1281.11 373.015 1346.16 375.071Z" fill="#81E1BA"/>
<path d="M1082.5 410C1160.16 341.806 1169.05 277.878 1181.5 150C1093.4 154.328 852.271 392.212 887.5 462.5C992.971 429.916 996.538 430.553 1082.5 410Z" fill="#F28123"/>
<path d="M1440 377C1442.56 296.138 1359.5 260.5 1442 237C1221.23 127.087 1395.5 297 1364 375.142C1372.5 374 1438 377 1440 377Z" fill="#F9DC5C"/>
<path d="M1439.5 225.782C1439.5 204.282 1439.5 176.282 1439.5 176.282C1421 176.282 1346.5 180.282 1335.17 189.553C1376.95 188.689 1423.94 220.111 1439.5 225.782Z" fill="#497E9A"/>
</svg>
