<svg  viewBox="0 0 1651 918" fill="none" xmlns="http://www.w3.org/2000/svg">
<path d="M204.621 572.883C325.27 916.708 1060.52 340.338 1648.62 392.348C1050.58 680.404 508.845 1092.98 204.621 838.434V572.883Z" fill="#E2E2E2"/>
<path d="M204.621 572.895C202.428 569.958 134.121 403 204.622 278L204.622 113.68C-146.209 398.513 22.5515 656.761 204.621 838.5V572.895Z" fill="#E2E2E2"/>
<path d="M204.621 278C327.32 -13.1736 590.522 301.293 1188.62 257.248C580.418 13.303 514.016 -101.893 204.621 113.676V278Z" fill="#E2E2E2"/>
<path d="M1550.78 375.071C1555.9 213.154 1422.56 170.743 1635.25 168.558C1283.83 -5.19651 1468.63 279.791 1304.28 406.984C1349.94 394.204 1485.74 373.015 1550.78 375.071Z" fill="#81E1BA"/>
<path d="M1287.12 410C1364.78 341.806 1373.67 277.878 1386.12 150C1298.02 154.328 1056.89 392.212 1092.12 462.5C1197.59 429.916 1201.16 430.553 1287.12 410Z" fill="#F28123"/>
<path d="M1644.62 377C1647.18 296.138 1564.12 260.5 1646.62 237C1425.85 127.087 1600.12 297 1568.62 375.142C1577.12 374 1642.62 377 1644.62 377Z" fill="#F9DC5C"/>
<path d="M1644.12 225.782C1644.12 204.282 1644.12 176.282 1644.12 176.282C1625.62 176.282 1551.12 180.282 1539.79 189.553C1581.57 188.689 1628.56 220.111 1644.12 225.782Z" fill="#497E9A"/>
</svg>
