<svg  viewBox="0 0 30 29" fill="none" xmlns="http://www.w3.org/2000/svg">
<path d="M21.4821 24.4303C21.9282 9.56875 10.3073 5.67601 28.8425 5.47549C-1.78256 -10.4725 14.3229 15.6849 0 27.3594C3.97918 26.1864 15.8133 24.2415 21.4821 24.4303Z" fill="#81E1BA"/>
<path d="M29.5289 24.4366C29.7517 17.0148 22.6443 13.9143 29.8339 11.7573C10.5945 1.66897 25.7815 17.2644 23.0365 24.4366C26.1695 24.2031 27.6714 24.5957 29.5289 24.4366Z" fill="#F9DC5C"/>
<path d="M29.616 10.7276C29.616 8.75427 29.616 6.18429 29.616 6.18429C28.0038 6.18429 21.5114 6.55143 20.5242 7.40233C24.165 7.32307 28.2602 10.2071 29.616 10.7276Z" fill="#497E9A"/>
</svg>
