<svg width="207" height="125" viewBox="0 0 207 125" fill="none" xmlns="http://www.w3.org/2000/svg">
<path d="M159.93 54.9666C165.729 58.3148 165.729 66.6852 159.93 70.0334L92.2763 109.093C86.477 112.441 79.228 108.256 79.228 101.56L79.228 23.4402C79.228 16.7439 86.477 12.5586 92.2763 15.9068L159.93 54.9666Z" fill="#ABD1E6"/>
<path d="M111.282 54.9667C117.081 58.3149 117.081 66.6853 111.282 70.0335L43.6283 109.093C37.8291 112.441 30.5801 108.256 30.5801 101.56L30.5801 23.4403C30.5801 16.7439 37.8291 12.5587 43.6283 15.9069L111.282 54.9667Z" fill="#ABD1E6"/>
<path d="M193.68 54.9666C199.479 58.3148 199.479 66.6852 193.68 70.0334L126.026 109.093C120.227 112.441 112.978 108.256 112.978 101.56L112.978 23.4402C112.978 16.7439 120.227 12.5586 126.026 15.9068L193.68 54.9666Z" fill="#E2E2E2"/>
<path d="M111.952 54.9666C117.751 58.3148 117.751 66.6852 111.952 70.0334L44.2982 109.093C38.499 112.441 31.25 108.256 31.25 101.56L31.25 23.4402C31.25 16.7439 38.499 12.5586 44.2982 15.9068L111.952 54.9666Z" fill="#E2E2E2"/>
</svg>
