

<svg width="131" height="125" viewBox="0 0 131 125" fill="none" xmlns="http://www.w3.org/2000/svg">
<path d="M1.63949 22.728L53.3451 74.4336C48.2314 87.5021 51.0724 102.843 61.868 113.639C73.2319 125.003 90.2777 127.276 103.914 121.025L79.482 96.5932L96.5279 79.5473L121.528 103.98C128.347 90.343 125.506 73.2972 114.142 61.9333C103.346 51.1376 88.0049 48.2967 74.9365 53.4104L23.2309 1.70479C20.9581 -0.567984 17.5489 -0.567984 15.2762 1.70479L2.20769 14.7733C-0.633281 17.046 -0.633283 21.0234 1.63949 22.728Z" fill="#ABD1E6"/>
<path d="M7.06897 102.272L58.7746 50.5664C53.6609 37.4979 56.5018 22.1567 67.2975 11.361C78.6614 -0.00283992 95.7072 -2.27561 109.344 3.97452L84.9115 28.4068L101.957 45.4527L126.958 21.0203C133.776 34.657 130.935 51.7028 119.571 63.0667C108.776 73.8624 93.4344 76.7033 80.366 71.5896L28.6603 123.295C26.3876 125.568 22.9784 125.568 20.7056 123.295L7.63716 110.227C4.79619 107.954 4.79619 103.977 7.06897 102.272Z" fill="#E2E2E2"/>
</svg>
